<svg width="68" height="56" viewBox="0 0 68 56" fill="none" xmlns="http://www.w3.org/2000/svg">
<path d="M68 6.62861C65.4972 7.75503 62.8087 8.51304 59.9868 8.85494C62.8688 7.10568 65.0787 4.33603 66.1196 1.03365C63.4259 2.65304 60.4392 3.82981 57.259 4.4659C54.7144 1.71745 51.0896 0 47.0777 0C39.3731 0 33.1278 6.33177 33.1278 14.1372C33.1278 15.245 33.2533 16.3264 33.4887 17.3574C21.8952 16.769 11.6171 11.1396 4.73366 2.58413C3.53586 4.67263 2.84804 7.10038 2.84804 9.69511C2.84804 14.5983 5.30903 18.9264 9.0515 21.4602C6.76574 21.386 4.61336 20.7499 2.73297 19.6924C2.73297 19.7533 2.73297 19.809 2.73297 19.8699C2.73297 26.7212 7.53986 32.4354 13.9238 33.7315C12.7547 34.0548 11.5203 34.2271 10.2467 34.2271C9.34964 34.2271 8.47352 34.137 7.62355 33.9753C9.39933 39.5915 14.5514 43.681 20.6555 43.795C15.8826 47.5877 9.86747 49.8484 3.32926 49.8484C2.20468 49.8484 1.09319 49.7822 0 49.6497C6.17469 53.6597 13.5053 56 21.3852 56C47.0463 56 61.0747 34.4577 61.0747 15.7751C61.0747 15.1629 61.0616 14.5533 61.0355 13.9463C63.7632 11.9506 66.1301 9.46188 68 6.62861Z" fill="#A0C5F8"/>
</svg>
